<?xml version="1.0" encoding="utf-8"?>
<!-- Generator: Adobe Illustrator 18.1.1, SVG Export Plug-In . SVG Version: 6.00 Build 0)  -->
<svg version="1.1" id="Capa_1" xmlns="http://www.w3.org/2000/svg" xmlns:xlink="http://www.w3.org/1999/xlink" x="0px" y="0px"
	 viewBox="0 0 147 127.5" enable-background="new 0 0 147 127.5" xml:space="preserve">
<g>
	<path fill="#B3C2D6" d="M77,17.1c0.1,0.1,0.2,0.2,0.3,0.2c1.1,0.6,1.5,1.5,1.2,2.8c-0.3,1-1.1,1.5-2.3,1.5c-1.1,0-1.8-0.6-2.1-1.7
		c-0.2-1,0.3-2,1.3-2.6c0.1,0,0.2-0.1,0.3-0.2C76.1,17.1,76.6,17.1,77,17.1z"/>
	<path fill="#B2C2D6" d="M85.1,77.5c-1.4-0.8-1.9-1.8-1.5-3c0.4-1.1,1-1.5,2.3-1.5c1,0,1.8,0.5,2,1.4c0.3,1.1,0,2.1-0.9,2.7
		c-0.2,0.1-0.4,0.3-0.6,0.4C86,77.5,85.5,77.5,85.1,77.5z"/>
	<path fill="#023776" d="M73.4,53.8c-3.1,0-5.5-2.4-5.5-5.4c0-3,2.4-5.5,5.4-5.4c3.9,0.1,5.7,3,5.7,5.4C79,51.5,76.6,53.8,73.4,53.8
		z"/>
	<path fill="#6787AD" d="M88.2,47.7c0,2.4-1.8,4.1-4.1,4.1c-2.3,0-4.1-1.9-4.1-4.2c0-2.3,1.8-4.1,4.2-4.1
		C86.5,43.6,88.2,45.4,88.2,47.7z"/>
	<path fill="#6787AD" d="M66.4,46.1c0,2.4-1.7,4.1-4.1,4.1c-2.3,0-4.2-1.8-4.2-4.1c0-2.3,1.8-4.2,4.1-4.2
		C64.6,41.9,66.4,43.7,66.4,46.1z"/>
	<path fill="#6787AD" d="M78.9,62.9c-2.4,0-4.1-1.7-4.1-4.1c0-2.3,1.8-4.1,4.1-4.1c2.3,0,4.1,1.9,4.1,4.2
		C83.1,61.1,81.3,62.9,78.9,62.9z"/>
	<path fill="#6787AD" d="M70.1,57.2c0,2.3-1.8,4.1-4.2,4.1c-2.3,0-4.1-1.8-4.1-4.1c0-2.4,1.8-4.2,4.2-4.2
		C68.3,53,70.1,54.8,70.1,57.2z"/>
	<path fill="#6787AD" d="M74.3,41.1c-2.4,0-4.2-1.8-4.2-4.1c0-2.3,1.8-4.2,4.1-4.2c2.3,0,4.1,1.8,4.1,4.1
		C78.3,39.4,76.6,41.1,74.3,41.1z"/>
	<path fill="#9AAFC8" d="M82.7,71c-1.8,0-3.1-1.2-3.1-3c0-1.8,1.2-3.1,3-3.1c1.7,0,3.1,1.3,3.1,3C85.8,69.7,84.4,71,82.7,71z"/>
	<path fill="#99AFC8" d="M61.5,63.5c0,1.8-1.3,3.1-3,3.1c-1.8,0-3.1-1.3-3.1-3.1c0-1.7,1.3-3,3.1-3C60.2,60.5,61.5,61.8,61.5,63.5z"
		/>
	<path fill="#9AAFC8" d="M78.5,27.2c0,1.8-1.2,3.1-3,3.1c-1.7,0-3.2-1.4-3.2-3.1c0-1.7,1.4-3,3.1-3.1C77.2,24.1,78.5,25.4,78.5,27.2
		z"/>
	<path fill="#9AAFC8" d="M49.7,43.8c0-1.8,1.2-3,3-3c1.8,0,3.1,1.3,3.1,3.1c0,1.6-1.4,3-3.1,3.1C51.4,46.9,49.5,45.7,49.7,43.8z"/>
	<path fill="#99AFC8" d="M97,47.3c0,1.8-1.2,3-3.1,3c-1.7,0-3-1.3-3-3c0-1.7,1.4-3,3.1-3.1C95.5,44.2,97.2,45.6,97,47.3z"/>
	<path fill="#B3C2D6" d="M52.6,66.4c1.2,0,2.3,1.1,2.3,2.4c0,1.2-1.1,2.2-2.3,2.2c-1.3,0-2.3-1.1-2.3-2.3
		C50.2,67.4,51.3,66.4,52.6,66.4z"/>
	<path fill="#B2C2D6" d="M101.8,49.1c-1.5,0-2.2-0.8-2.2-2.3c0-1.3,0.9-2.2,2.2-2.2c1.3,0,2.3,1,2.3,2.3
		C104.1,48.2,103.2,49.1,101.8,49.1z"/>
	<path fill="#B2C2D6" d="M47.2,42.2c0,1.3-0.9,2.3-2.2,2.3c-1.3,0-2.3-1-2.3-2.3c0-1.3,0.9-2.2,2.2-2.2
		C46.5,39.9,47.3,40.7,47.2,42.2z"/>
</g>
<g>
	<path fill="#6787AD" d="M37.6,105.9c0,0.1,0,0.2,0,0.3c0,0.1,0,0.2-0.1,0.3c-0.1,0.1-0.1,0.2-0.2,0.2c-0.1,0.1-0.2,0.1-0.3,0.2
		c-0.1,0-0.2,0.1-0.3,0.1c-0.2,0-0.3,0-0.4-0.1c-0.1-0.1-0.2-0.2-0.3-0.4l-1.2-3.1H28l-1.2,3.1c-0.1,0.2-0.2,0.3-0.3,0.4
		c-0.1,0.1-0.3,0.1-0.4,0.1c-0.1,0-0.2,0-0.3-0.1c-0.1,0-0.2-0.1-0.3-0.2c-0.1-0.1-0.1-0.1-0.2-0.2c-0.1-0.1-0.1-0.2-0.1-0.3
		c0-0.1,0-0.2,0.1-0.3l4.6-11.1c0.1-0.3,0.2-0.6,0.4-0.8c0.1-0.2,0.2-0.4,0.4-0.5c0.1-0.1,0.3-0.2,0.4-0.2c0.1,0,0.3-0.1,0.4-0.1
		s0.3,0,0.4,0.1s0.3,0.1,0.4,0.2c0.1,0.1,0.3,0.3,0.4,0.5c0.1,0.2,0.2,0.5,0.4,0.8L37.6,105.9z M31.4,94.7l-2.9,7.4h5.8L31.4,94.7
		L31.4,94.7z"/>
	<path fill="#6787AD" d="M38.3,100.2c0-0.9,0.1-1.8,0.4-2.7c0.3-0.9,0.6-1.6,1.2-2.3c0.5-0.6,1.2-1.2,1.9-1.5
		c0.8-0.4,1.7-0.6,2.8-0.6c0.7,0,1.3,0.1,1.8,0.2c0.6,0.1,1.1,0.3,1.6,0.5c0.1,0.1,0.3,0.2,0.3,0.3c0.1,0.1,0.1,0.3,0.1,0.4
		c0,0.2-0.1,0.3-0.2,0.5c-0.1,0.1-0.3,0.2-0.4,0.2c-0.1,0-0.2,0-0.2,0c-0.5-0.2-1-0.3-1.5-0.4c-0.5-0.1-1-0.2-1.4-0.2
		c-0.6,0-1.1,0.1-1.5,0.2c-0.4,0.2-0.8,0.4-1.2,0.6c-0.3,0.3-0.6,0.6-0.9,0.9c-0.2,0.4-0.4,0.8-0.6,1.2c-0.1,0.4-0.3,0.9-0.3,1.3
		c-0.1,0.4-0.1,0.9-0.1,1.3c0,0.4,0,0.8,0.1,1.3c0.1,0.4,0.2,0.9,0.3,1.3c0.1,0.4,0.3,0.8,0.6,1.2c0.2,0.4,0.5,0.7,0.9,0.9
		c0.3,0.3,0.7,0.5,1.2,0.6c0.4,0.2,1,0.2,1.5,0.2c0.2,0,0.5,0,0.7-0.1c0.3,0,0.5-0.1,0.8-0.2c0.3-0.1,0.6-0.2,0.8-0.3
		c0.3-0.1,0.5-0.2,0.8-0.4c0.1,0,0.1-0.1,0.2-0.1c0.1,0,0.1,0,0.2,0c0.2,0,0.3,0.1,0.4,0.2c0.1,0.1,0.2,0.3,0.2,0.4
		c0,0.2-0.1,0.4-0.2,0.5c-0.1,0.2-0.3,0.3-0.5,0.4c-0.2,0.1-0.5,0.3-0.8,0.4c-0.3,0.1-0.6,0.2-0.9,0.3c-0.3,0.1-0.6,0.1-0.9,0.2
		c-0.3,0-0.6,0.1-0.8,0.1c-1.1,0-2-0.2-2.8-0.6c-0.8-0.4-1.4-0.9-1.9-1.5c-0.5-0.6-0.9-1.4-1.1-2.3S38.3,101.1,38.3,100.2z"/>
	<path fill="#6787AD" d="M54.1,106.2c0,0.1,0,0.3-0.1,0.3c0,0.1-0.1,0.2-0.2,0.2c-0.1,0.1-0.2,0.1-0.3,0.1s-0.2,0-0.3,0
		s-0.2,0-0.3,0c-0.1,0-0.2-0.1-0.3-0.1c-0.1-0.1-0.1-0.1-0.2-0.2c0-0.1-0.1-0.2-0.1-0.3V94.1c0-0.3,0.1-0.5,0.3-0.6s0.4-0.2,0.6-0.2
		c0.1,0,0.2,0,0.3,0.1c0.1,0,0.2,0.1,0.3,0.2c0.1,0.1,0.1,0.2,0.2,0.2c0,0.1,0.1,0.2,0.1,0.3v5.2l5.8-5.7c0.1-0.1,0.2-0.2,0.3-0.2
		c0.1,0,0.2-0.1,0.3-0.1c0.2,0,0.4,0.1,0.5,0.2c0.2,0.1,0.2,0.3,0.2,0.5c0,0.2-0.1,0.3-0.2,0.5l-5.2,5l5.7,6.1
		c0.1,0.2,0.2,0.4,0.2,0.5c0,0.1,0,0.2-0.1,0.3c0,0.1-0.1,0.2-0.2,0.3c-0.1,0.1-0.2,0.1-0.3,0.2c-0.1,0-0.2,0.1-0.3,0.1
		c-0.1,0-0.2,0-0.3-0.1c-0.1-0.1-0.2-0.1-0.3-0.3l-6.2-6.7V106.2z"/>
	<path fill="#6787AD" d="M64.6,94.1c0-0.1,0-0.3,0.1-0.4c0-0.1,0.1-0.2,0.2-0.3c0.1-0.1,0.2-0.1,0.3-0.2c0.1,0,0.2-0.1,0.3-0.1
		c0.2,0,0.4,0.1,0.6,0.2s0.3,0.3,0.3,0.6v8.1c0,0.6,0.1,1.2,0.3,1.6c0.2,0.5,0.5,0.8,0.8,1.1c0.3,0.3,0.7,0.5,1.2,0.7
		c0.4,0.1,0.9,0.2,1.3,0.2c0.5,0,0.9-0.1,1.3-0.2c0.4-0.1,0.8-0.4,1.2-0.7c0.3-0.3,0.6-0.7,0.8-1.1c0.2-0.5,0.3-1,0.3-1.6v-8.1
		c0-0.1,0-0.3,0.1-0.4c0-0.1,0.1-0.2,0.2-0.3c0.1-0.1,0.2-0.1,0.3-0.2c0.1,0,0.2-0.1,0.3-0.1c0.2,0,0.4,0.1,0.6,0.2s0.3,0.3,0.3,0.6
		v8.1c0,0.8-0.1,1.6-0.4,2.2c-0.3,0.6-0.7,1.1-1.2,1.5c-0.5,0.4-1.1,0.7-1.7,0.9c-0.6,0.2-1.3,0.3-2,0.3c-0.7,0-1.4-0.1-2-0.3
		c-0.6-0.2-1.2-0.5-1.7-0.9c-0.5-0.4-0.9-0.9-1.2-1.5c-0.3-0.6-0.4-1.4-0.4-2.2V94.1z"/>
	<path fill="#6787AD" d="M89.4,105.9c0,0.1,0,0.2,0,0.3c0,0.1,0,0.2-0.1,0.3c-0.1,0.1-0.1,0.2-0.2,0.2c-0.1,0.1-0.2,0.1-0.3,0.2
		c-0.1,0-0.2,0.1-0.3,0.1c-0.2,0-0.3,0-0.4-0.1c-0.1-0.1-0.2-0.2-0.3-0.4l-1.2-3.1h-6.8l-1.2,3.1c-0.1,0.2-0.2,0.3-0.3,0.4
		c-0.1,0.1-0.3,0.1-0.4,0.1c-0.1,0-0.2,0-0.3-0.1c-0.1,0-0.2-0.1-0.3-0.2c-0.1-0.1-0.1-0.1-0.2-0.2s-0.1-0.2-0.1-0.3
		c0-0.1,0-0.2,0.1-0.3l4.6-11.1c0.1-0.3,0.2-0.6,0.4-0.8c0.1-0.2,0.2-0.4,0.4-0.5c0.1-0.1,0.3-0.2,0.4-0.2c0.1,0,0.3-0.1,0.4-0.1
		c0.2,0,0.3,0,0.4,0.1c0.1,0,0.3,0.1,0.4,0.2c0.1,0.1,0.3,0.3,0.4,0.5c0.1,0.2,0.2,0.5,0.4,0.8L89.4,105.9z M83.2,94.7l-2.9,7.4h5.8
		L83.2,94.7L83.2,94.7z"/>
	<path fill="#6787AD" d="M91.9,94.1c0-0.1,0-0.2,0.1-0.3c0-0.1,0.1-0.2,0.2-0.3c0.1-0.1,0.2-0.1,0.3-0.2c0.1,0,0.2-0.1,0.3-0.1h4.1
		c0.6,0,1.2,0,1.8,0.1c0.6,0.1,1.1,0.3,1.6,0.5c0.5,0.3,0.8,0.6,1.1,1.1c0.3,0.5,0.4,1.1,0.4,1.8c0,0.8-0.2,1.4-0.7,1.9
		c-0.5,0.5-1.2,0.9-2.1,1.1v0c0.5,0.1,0.8,0.2,1.1,0.4c0.3,0.2,0.5,0.4,0.7,0.6s0.3,0.6,0.4,0.9c0.1,0.3,0.2,0.7,0.2,1.1
		c0.1,0.5,0.1,0.9,0.1,1.4c0,0.4,0.1,0.7,0.1,1c0,0.3,0,0.6,0.1,0.9c0,0.3-0.1,0.5-0.3,0.6c-0.2,0.1-0.4,0.2-0.6,0.2
		c-0.2,0-0.4-0.1-0.6-0.2c-0.2-0.1-0.3-0.3-0.3-0.6c-0.1-0.8-0.1-1.5-0.2-2.1c0-0.6-0.1-1.1-0.2-1.5c-0.1-0.4-0.2-0.7-0.3-1
		c-0.1-0.3-0.3-0.5-0.5-0.6c-0.2-0.2-0.5-0.3-0.8-0.3c-0.3-0.1-0.7-0.1-1.2-0.1h-3.2v5.5c0,0.1,0,0.3-0.1,0.4c0,0.1-0.1,0.2-0.2,0.3
		c-0.1,0.1-0.2,0.1-0.3,0.1c-0.1,0-0.2,0-0.3,0c-0.2,0-0.4-0.1-0.6-0.2c-0.2-0.1-0.3-0.3-0.3-0.6V94.1z M96.1,99.3
		c0.3,0,0.6,0,0.9,0s0.6,0,0.9-0.1c0.3-0.1,0.6-0.1,0.8-0.2c0.2-0.1,0.5-0.2,0.7-0.4c0.2-0.2,0.3-0.4,0.4-0.6
		c0.1-0.3,0.2-0.6,0.2-0.9c0-0.4,0-0.7-0.1-0.9c-0.1-0.3-0.2-0.5-0.4-0.6c-0.2-0.2-0.3-0.3-0.6-0.4c-0.2-0.1-0.4-0.2-0.7-0.2
		s-0.5-0.1-0.7-0.1c-0.2,0-0.5,0-0.7,0h-3.1v4.7H96.1z"/>
	<path fill="#6787AD" d="M105.2,94.1c0-0.1,0-0.3,0.1-0.4c0-0.1,0.1-0.2,0.2-0.3c0.1-0.1,0.2-0.1,0.3-0.2c0.1,0,0.2-0.1,0.3-0.1
		c0.2,0,0.4,0.1,0.6,0.2c0.2,0.1,0.3,0.3,0.3,0.6v12.1c0,0.1,0,0.3-0.1,0.4c0,0.1-0.1,0.2-0.2,0.3c-0.1,0.1-0.2,0.1-0.3,0.1
		c-0.1,0-0.2,0-0.3,0c-0.2,0-0.4-0.1-0.6-0.2c-0.2-0.1-0.3-0.3-0.3-0.6V94.1z"/>
	<path fill="#6787AD" d="M121.7,105.9c0,0.1,0,0.2,0,0.3c0,0.1,0,0.2-0.1,0.3c-0.1,0.1-0.1,0.2-0.2,0.2c-0.1,0.1-0.2,0.1-0.3,0.2
		c-0.1,0-0.2,0.1-0.3,0.1c-0.2,0-0.3,0-0.4-0.1c-0.1-0.1-0.2-0.2-0.3-0.4l-1.2-3.1h-6.8l-1.2,3.1c-0.1,0.2-0.2,0.3-0.3,0.4
		c-0.1,0.1-0.3,0.1-0.4,0.1c-0.1,0-0.2,0-0.3-0.1c-0.1,0-0.2-0.1-0.3-0.2c-0.1-0.1-0.1-0.1-0.2-0.2c-0.1-0.1-0.1-0.2-0.1-0.3
		c0-0.1,0-0.2,0.1-0.3l4.6-11.1c0.1-0.3,0.2-0.6,0.4-0.8c0.1-0.2,0.2-0.4,0.4-0.5c0.1-0.1,0.3-0.2,0.4-0.2c0.1,0,0.3-0.1,0.4-0.1
		c0.2,0,0.3,0,0.4,0.1c0.1,0,0.3,0.1,0.4,0.2c0.1,0.1,0.3,0.3,0.4,0.5c0.1,0.2,0.2,0.5,0.4,0.8L121.7,105.9z M115.5,94.7l-2.9,7.4
		h5.8L115.5,94.7L115.5,94.7z"/>
</g>
</svg>
