<?xml version="1.0" encoding="UTF-8" standalone="no"?>
<!-- Generator: Adobe Illustrator 16.0.0, SVG Export Plug-In . SVG Version: 6.00 Build 0)  -->

<svg
   xmlns:dc="http://purl.org/dc/elements/1.1/"
   xmlns:cc="http://creativecommons.org/ns#"
   xmlns:rdf="http://www.w3.org/1999/02/22-rdf-syntax-ns#"
   xmlns:svg="http://www.w3.org/2000/svg"
   xmlns="http://www.w3.org/2000/svg"
   xmlns:sodipodi="http://sodipodi.sourceforge.net/DTD/sodipodi-0.dtd"
   xmlns:inkscape="http://www.inkscape.org/namespaces/inkscape"
   version="1.1"
   id="Capa_1"
   x="0px"
   y="0px"
   width="500px"
   height="300px"
   viewBox="0 0 500 300"
   enable-background="new 0 0 500 300"
   xml:space="preserve"
   inkscape:version="0.48.4 r9939"
   sodipodi:docname="logo.svg"><metadata
     id="metadata3079"><rdf:RDF><cc:Work
         rdf:about=""><dc:format>image/svg+xml</dc:format><dc:type
           rdf:resource="http://purl.org/dc/dcmitype/StillImage" /></cc:Work></rdf:RDF></metadata><defs
     id="defs3077" /><sodipodi:namedview
     pagecolor="#ffffff"
     bordercolor="#666666"
     borderopacity="1"
     objecttolerance="10"
     gridtolerance="10"
     guidetolerance="10"
     inkscape:pageopacity="0"
     inkscape:pageshadow="2"
     inkscape:window-width="1615"
     inkscape:window-height="1026"
     id="namedview3075"
     showgrid="false"
     inkscape:zoom="0.49909954"
     inkscape:cx="1201.5517"
     inkscape:cy="-241.27163"
     inkscape:window-x="65"
     inkscape:window-y="24"
     inkscape:window-maximized="1"
     inkscape:current-layer="Capa_1" /><g
     id="g3061"
     style="fill:#f9f9f9"><path
       fill="#003676"
       d="M317.939,151.332"
       id="path3063"
       style="fill:#f9f9f9" /><path
       fill="#003676"
       d="M160.536,48.917c-6.952-20.167-23.572-16.157-23.572-16.157l35.313,87.987   c0.79,2.171,1.184,3.552,1.184,4.538c0,0.987-0.592,2.368-1.382,4.142c-3.943,8.88-7.011,16.852-12.578,18.573s-19.5,1-19.5,1   l-60.5-0.25c0,0,0.247-79.902,0.247-99.833S63.75,32,63.75,32l0.083,133.724h73.979c0,0,25.815,1.439,34.715-7.459   c11.077-11.077,15.729-24.697,28.16-57.444l30.217-68.189c-17.152-3.799-23.835,16.284-23.835,16.284s-21.966,54.075-23.744,59.796   "
       id="path3065"
       style="fill:#f9f9f9" /><path
       fill="#003676"
       d="M317.939,73.139V149c0,0-17.362,2.64-17.362-19c0-27.23,0-54.888,0-54.888   c0-15.388-5.72-28.208-22.096-28.208c-11.442,0-20.318,8.086-23.278,17.752c-0.79,2.171-1.245,4.718-1.245,7.677l-0.048,145.659   c0,0,6.119-6.326,8.879-9.679l37.751-42.333h17.466l-43.183,48.646l42.022,56.225h-21.11l-31.842-44.665l-9.98,10.289v34.376   L238,270.75v-16.968c-4.567,4.493-10.431,8.434-13.72,10.019l0.002,0.005c-4.536,2.368-14.598,5.522-27.418,5.522   c-28.806,0-47.548-19.529-47.548-48.726c0-29.396,19.216-49.972,50.384-49.972c10.259,0,20.081,5.104,24.813,7.473l-4.15,11.707   c-4.146-2.369-10.283-6.102-19.755-6.102c-21.898,0-33.734,16.178-33.734,36.104c0,22.095,14.206,35.708,33.143,35.708   c9.399,0,15.68-2.46,20.58-4.423c9.19-3.68,15.639-13.341,17.411-15.102c0,0,0.584-195.604-0.008-203.496   c0,0,15.377-2.124,15.377,16.633c5.055-5.055,15.044-16.633,30.826-16.633C297.42,32.5,317.939,40.392,317.939,73.139z"
       id="path3067"
       style="fill:#f9f9f9" /><polygon
       fill="#003676"
       points="332.055,270.664 347.625,270.664 347.5,166.022 332.137,166.022  "
       id="polygon3069"
       style="fill:#f9f9f9" /><path
       fill="#003676"
       d="M331.543,149.332h16.082c0-18.129-16.125-14.999-16.125-14.999L331.543,149.332z"
       id="path3071"
       style="fill:#f9f9f9" /><path
       fill="#003676"
       d="M434.42,244.473v-35.707c0-19.137-7.102-39.063-36.298-39.063c-12.034,0-23.477,3.352-31.37,8.482   l3.946,11.443c6.708-4.341,15.981-7.104,24.855-7.104c19.53,0,21.702,14.206,21.702,22.096v1.975   c-36.892-0.198-57.408,12.427-57.408,35.51c0,13.809,9.862,27.422,29.198,27.422c13.61,0,23.872-6.709,29.196-14.204   c0,0-2.015,12.034,17.758,12.034C436,265.676,434.42,252.76,434.42,244.473z M417.652,235.201c0,1.773-0.396,3.745-0.988,5.523   c-2.762,8.087-10.652,15.979-23.08,15.979c-8.878,0-16.378-5.324-16.378-16.57c0-18.547,21.508-21.898,40.446-21.506V235.201z"
       id="path3073"
       style="fill:#f9f9f9" /></g><path
     style="fill:#f9f9f9;stroke:none"
     d="m 63.837072,98.935799 0,-66.826462 3.099174,0.161161 c 3.484729,0.181211 5.429598,0.920185 7.830529,2.975293 1.706075,1.460336 3.780299,5.436234 4.30095,8.244111 0.225251,1.214781 0.353763,20.73306 0.353763,53.729207 l 0,51.821361 34.445102,0.10787 c 36.68626,0.11487 42.35785,-0.01 45.54714,-1.00134 4.10689,-1.27681 7.03193,-5.36798 12.12196,-16.95456 1.52139,-3.4632 1.86659,-4.6138 1.86407,-6.21323 -0.003,-1.95681 -5.57196,-16.17054 -31.93932,-81.520534 l -4.24463,-10.520072 1.56545,-0.234754 c 0.861,-0.129115 2.48095,-0.124221 3.59989,0.01087 6.65914,0.804 12.43032,4.959025 15.76011,11.346668 0.60929,1.168831 6.45681,16.128847 12.99449,33.244481 6.53768,17.11563 12.02801,31.110066 12.20074,31.098746 0.17273,-0.0113 1.70306,-3.65493 3.40074,-8.0969 3.11066,-8.139025 19.79987,-49.754469 21.44566,-53.475882 1.38996,-3.142957 4.59394,-7.693312 6.81425,-9.677744 2.94507,-2.632201 6.38135,-4.232358 9.78752,-4.557714 2.98409,-0.285039 5.7397,-0.04009 5.63186,0.500624 -0.0371,0.186258 -6.78311,15.480328 -14.99101,33.986821 -9.76064,22.007462 -16.27517,37.201535 -18.83065,43.919375 -10.06396,26.45617 -13.59057,33.94347 -19.69355,41.81113 -6.0192,7.75965 -10.21576,10.06255 -21.73896,11.92945 -4.62391,0.74913 -5.65649,0.76831 -48.0254,0.89204 l -43.299878,0.12644 0,-66.826461 z"
     id="path3116"
     inkscape:connector-curvature="0" /><path
     style="fill:#f9f9f9;stroke:none"
     d="m 238.01692,262.08837 -0.0948,-8.47833 -2.64137,2.29161 c -7.99433,6.93574 -15.2015,10.30787 -26.14979,12.23511 -5.92634,1.04322 -16.92115,1.14881 -21.93738,0.21068 -19.91537,-3.72457 -33.12927,-17.10853 -36.79946,-37.27306 -0.91113,-5.00589 -0.91645,-15.9718 -0.0101,-20.89728 3.70867,-20.15534 17.05416,-33.97145 36.77593,-38.0728 4.70431,-0.97831 11.72415,-1.42835 15.87437,-1.0177 5.6648,0.56053 10.448,2.0457 17.81029,5.53008 2.6697,1.2635 3.41452,1.7671 3.24339,2.19296 -0.12218,0.30405 -1.01077,2.77743 -1.97466,5.49641 -0.96388,2.71898 -1.79332,4.98439 -1.84318,5.03426 -0.0499,0.0499 -1.44691,-0.61341 -3.10454,-1.47395 -6.71824,-3.4877 -13.31868,-4.79428 -20.51746,-4.06151 -5.38671,0.54832 -9.38477,1.75035 -13.40718,4.03091 -11.45979,6.49726 -17.52314,19.89424 -16.27457,35.95868 0.51902,6.67794 2.79822,13.66197 5.95657,18.25248 3.05432,4.43931 8.28215,8.727 13.31323,10.91909 4.33771,1.88998 7.92615,2.52982 14.14167,2.52154 6.63236,-0.009 9.83953,-0.54224 15.96985,-2.65606 8.33158,-2.87286 12.20943,-5.57975 18.74643,-13.08578 l 3.12645,-3.58991 0.0279,-101.84248 0.0279,-101.842491 2.23171,0.228479 c 5.00176,0.512074 8.67189,2.946012 10.72214,7.110663 0.95433,1.938504 1.27556,3.281758 1.97384,8.253696 l 0.16415,1.168744 3.6111,-3.437456 c 10.57955,-10.070802 19.89593,-14.002977 30.52964,-12.885678 17.21938,1.809264 28.05152,14.125116 29.90171,33.997453 0.24237,2.603242 0.37966,18.101716 0.38044,42.94569 l 0.001,38.87249 -0.97403,0.0515 c -3.32329,0.17567 -6.59145,-0.6906 -9.24147,-2.44959 -3.20606,-2.12806 -5.2311,-5.51705 -6.23013,-10.4264 -0.47845,-2.35117 -0.5556,-6.84881 -0.55585,-32.4085 -1.7e-4,-17.199396 -0.1503,-31.260319 -0.35705,-33.44055 -1.23469,-13.019949 -6.91312,-20.744486 -16.74208,-22.774711 -8.55154,-1.766371 -16.9467,0.972581 -22.90216,7.471912 -2.68355,2.928627 -4.3648,5.858678 -5.82452,10.150896 l -1.10424,3.246942 -0.0973,75.000001 c -0.0535,41.25 0.0262,74.98625 0.1771,74.96944 0.39304,-0.0438 3.96712,-3.99877 26.55157,-29.38137 l 20.12183,-22.61486 8.46694,-0.0197 c 8.03147,-0.0187 8.43955,0.0122 7.93443,0.60017 -0.29288,0.34091 -9.96764,11.25872 -21.49946,24.26179 l -20.96694,23.64196 5.08703,6.81849 c 2.79786,3.75017 12.20711,16.34422 20.90944,27.98677 l 15.82242,21.16827 -10.35097,-0.0939 -10.35097,-0.0939 -15.58971,-21.8587 c -8.57435,-12.02229 -15.75641,-22.0231 -15.96015,-22.22404 -0.25607,-0.25254 -1.92364,1.26575 -5.40142,4.91791 l -5.03098,5.28323 0,17.02935 0,17.02935 -7.78591,0 -7.78591,0 -0.0949,-8.47834 0,0 z"
     id="path3118"
     inkscape:connector-curvature="0" /><path
     style="fill:#f9f9f9;stroke:none"
     d="m 332.31405,218.32349 0,-52.24321 7.37979,0 7.37979,0 0.23505,25.76742 c 0.12928,14.17208 0.23518,37.68152 0.23533,52.24321 l 2.6e-4,26.4758 -7.61511,0 -7.61511,0 0,-52.24322 z"
     id="path3120"
     inkscape:connector-curvature="0" /><path
     style="fill:#f9f9f9;stroke:none"
     d="m 385.79693,269.10137 c -13.8277,-1.0883 -23.73913,-10.2705 -25.54137,-23.66218 -0.46005,-3.41841 0.0582,-9.12031 1.15429,-12.69937 4.88082,-15.93755 21.96224,-24.78321 49.84977,-25.81483 l 6.15926,-0.22785 -0.20696,-4.10418 c -0.34353,-6.81273 -2.23412,-11.6238 -5.89858,-15.01044 -3.58204,-3.31044 -7.61054,-4.75657 -14.18229,-5.09106 -7.46789,-0.3801 -15.16803,1.24531 -22.26171,4.69918 -2.21147,1.07675 -4.06256,1.90761 -4.11355,1.84636 -0.051,-0.0613 -0.91707,-2.4892 -1.92464,-5.39544 -1.4246,-4.10909 -1.73066,-5.35092 -1.37642,-5.58476 4.78334,-3.15758 11.95928,-5.77628 19.82588,-7.23501 4.67626,-0.86713 13.88897,-1.03931 18.51338,-0.346 15.85564,2.37715 24.96528,11.8309 27.84659,28.89847 0.23768,1.40792 0.50165,12.69023 0.67954,29.04369 0.21739,19.98523 0.42955,28.03898 0.83974,31.87721 0.78935,7.38599 0.91994,6.72963 -1.33886,6.72963 -2.81234,0 -6.95815,-0.88385 -9.2652,-1.97525 -3.5751,-1.6913 -5.64271,-4.40013 -6.06222,-7.9423 -0.11535,-0.97392 -0.30706,-1.76186 -0.42603,-1.75099 -0.11897,0.0109 -0.89945,0.8853 -1.73441,1.94317 -1.61377,2.04461 -5.10368,4.97485 -8.07957,6.78385 -6.41351,3.89869 -14.29697,5.6603 -22.45664,5.0181 z m 13.56644,-12.92239 c 8.37524,-1.88668 14.70649,-7.57268 17.50231,-15.71853 0.74209,-2.16212 0.79073,-2.90045 0.79932,-12.13105 l 0.009,-9.82881 -3.98465,0.003 c -16.72639,0.0127 -28.61063,3.96089 -33.5553,11.14771 -3.5507,5.16077 -4.06656,13.0386 -1.23363,18.8392 1.92806,3.94782 4.99244,6.38644 9.7299,7.74298 2.27498,0.65143 7.7219,0.62376 10.73291,-0.0545 l 0,-1.6e-4 z"
     id="path3122"
     inkscape:connector-curvature="0" /><path
     style="fill:#f9f9f9;stroke:none"
     d="m 331.60567,141.8576 0,-7.2215 1.21303,-0.22757 c 1.54299,-0.28947 5.60327,0.35143 7.4768,1.18019 4.01302,1.77515 6.41867,5.75873 7.02378,11.63088 l 0.19162,1.8595 -7.95262,0 -7.95261,0 0,-7.2215 z"
     id="path3124"
     inkscape:connector-curvature="0" /><path
     style="fill:#f9f9f9"
     d="m 63.837072,98.897433 0,-66.736623 2.213695,0.21628 c 6.221844,0.607879 8.863724,2.224032 11.230125,6.869955 1.788359,3.511062 1.715129,1.395132 1.9825,57.282673 l 0.251014,52.468322 13.678452,0.26437 c 18.802612,0.36342 61.571132,0.006 64.316572,-0.53766 5.30513,-1.05032 7.98726,-4.07925 12.71742,-14.36177 2.37741,-5.16809 3.40951,-7.88671 3.40951,-8.98093 0,-1.8429 -3.33693,-10.50771 -21.05113,-54.66225 -8.10528,-20.203247 -14.83031,-36.976684 -14.94451,-37.274304 -0.17614,-0.45899 0.24164,-0.540408 2.75232,-0.536389 6.45913,0.01034 12.76729,3.615063 16.41706,9.38133 1.29705,2.049207 3.93622,8.573428 13.10984,32.4085 9.00923,23.407934 12.91409,33.245183 13.28839,33.476513 0.48278,0.29838 0.85015,-0.55692 8.14141,-18.954671 10.07584,-25.423939 16.56468,-41.324981 17.92259,-43.919716 2.75968,-5.273267 6.38524,-9.046807 10.59881,-11.031409 2.527,-1.190223 7.24052,-1.968123 9.09821,-1.50153 l 1.24753,0.31334 -5.47346,12.396694 c -19.46275,44.080629 -25.28301,57.677852 -31.55168,73.710702 -8.81773,22.55236 -13.04903,30.45478 -20.08666,37.51408 -4.31159,4.32485 -8.22464,6.10621 -16.76988,7.63421 -4.78297,0.85525 -9.5122,0.94517 -61.240749,1.16442 l -31.257379,0.13249 0,-66.736627 z"
     id="path3126"
     inkscape:connector-curvature="0" /><path
     style="fill:#f9f9f9"
     d="m 238.3353,270.33058 c -0.12987,-0.12987 -0.23613,-3.95514 -0.23613,-8.50059 0,-4.54546 -0.0892,-8.26446 -0.19817,-8.26446 -0.109,0 -1.50362,1.09402 -3.09917,2.43116 -9.25623,7.75713 -17.92742,11.30487 -30.48621,12.47316 -5.57902,0.519 -14.23779,0.25561 -18.10547,-0.55073 -18.93178,-3.94697 -31.56791,-16.83102 -35.48477,-36.18099 -0.50582,-2.49888 -0.63346,-4.81277 -0.62273,-11.28949 0.0118,-7.1032 0.11617,-8.62067 0.8153,-11.85006 2.02544,-9.35583 6.43228,-17.69548 12.52042,-23.69406 4.10986,-4.0494 6.49496,-5.74347 11.79185,-8.37546 7.607,-3.77985 14.33321,-5.27091 23.73082,-5.26064 7.18972,0.008 11.95635,1.10252 19.30342,4.43305 4.76702,2.16096 5.72207,2.7526 5.51197,3.41456 -0.10573,0.33314 -0.95977,2.71431 -1.89787,5.2915 l -1.70563,4.6858 -2.63664,-1.27426 c -6.81193,-3.29213 -10.48751,-4.18981 -17.15849,-4.19058 -7.45988,-7.1e-4 -12.62113,1.34435 -18.5157,4.82587 -2.54023,1.50034 -6.95745,5.83166 -8.91061,8.73734 -7.59657,11.30123 -8.33442,28.95238 -1.76512,42.22581 3.41029,6.89058 12.15929,13.56755 20.15956,15.38516 3.51516,0.79862 10.71774,1.08111 14.92216,0.58525 5.7147,-0.67397 13.75785,-3.32998 18.37182,-6.06675 3.12237,-1.85202 5.50289,-3.9523 9.99658,-8.81976 l 3.79824,-4.11416 0.009,-101.90968 0.009,-101.909683 1.15113,0.194156 c 5.03415,0.849098 7.25751,1.827027 9.30407,4.092327 1.88127,2.082331 2.94032,4.54217 3.58975,8.337816 0.32689,1.910532 0.7186,3.616405 0.87046,3.79083 0.15187,0.174424 1.75915,-1.08168 3.57174,-2.791342 12.48518,-11.776223 23.0276,-15.339601 35.76849,-12.089882 12.51838,3.192965 20.42926,12.263905 23.73607,27.216774 0.67851,3.068117 0.74494,4.964537 1.00216,28.610596 0.15151,13.928568 0.29111,32.878558 0.31022,42.111078 l 0.0347,16.7864 -2.40256,-0.2233 c -5.81905,-0.54082 -9.8223,-3.12241 -12.13114,-7.82303 -2.02735,-4.12755 -2.04138,-4.36083 -2.27988,-37.92317 -0.12145,-17.090586 -0.38063,-32.234367 -0.58195,-34.002358 -1.63325,-14.343468 -9.2879,-22.136954 -21.7426,-22.136954 -5.8928,0 -11.35737,2.016189 -15.67691,5.784106 -4.00507,3.49361 -6.08978,6.612239 -8.04275,12.031577 l -1.25082,3.470939 0,75.07097 c 0,45.27281 0.1289,75.07098 0.32474,75.07098 0.50975,0 13.16917,-14.03032 41.62944,-46.13755 l 4.9412,-5.57438 8.09624,0 c 5.99489,0 8.03112,0.10536 7.84537,0.4059 -0.13797,0.22325 -9.63085,10.98132 -21.09528,23.90683 -11.46444,12.92551 -20.84443,23.66835 -20.84443,23.87296 0,0.20462 9.31133,12.83593 20.69185,28.06958 11.38051,15.23364 20.66475,27.69806 20.63164,27.6987 -0.0331,7.1e-4 -4.59337,-0.0785 -10.1339,-0.17593 l -10.07369,-0.17709 -15.60518,-21.8545 c -8.58284,-12.01997 -15.84638,-21.86206 -16.1412,-21.87131 -0.29482,-0.009 -2.72546,2.17681 -5.40142,4.8579 l -4.86538,4.87472 0,17.26224 0,17.26224 -7.55608,0 c -4.15585,0 -7.66234,-0.10626 -7.79221,-0.23613 z"
     id="path3128"
     inkscape:connector-curvature="0" /><path
     style="fill:#f9f9f9"
     d="m 332.31405,218.32349 0,-52.24321 7.21974,0 7.21973,0 0.20973,12.48525 c 0.11534,6.86688 0.29541,30.37632 0.40014,52.24321 l 0.19041,39.75797 -7.61987,0 -7.61988,0 0,-52.24322 z"
     id="path3138"
     inkscape:connector-curvature="0" /><path
     style="fill:#f9f9f9"
     d="m 384.73436,268.78451 c -16.5649,-1.95944 -26.79454,-15.78732 -23.91116,-32.32184 2.71925,-15.59334 15.95957,-25.21741 39.06042,-28.39209 2.19573,-0.30175 7.05008,-0.71467 10.78745,-0.9176 3.73737,-0.20293 6.84629,-0.42005 6.90873,-0.48248 0.25263,-0.25263 -0.69253,-8.6796 -1.19335,-10.63981 -1.65188,-6.46545 -6.16321,-10.94846 -12.9012,-12.82021 -1.80031,-0.50011 -3.62453,-0.63425 -8.65644,-0.63652 -5.74549,-0.003 -6.74877,0.091 -10.15363,0.94679 -3.55454,0.89344 -6.98321,2.15067 -11.72664,4.29992 l -2.04556,0.92685 -0.39061,-0.97353 c -0.21483,-0.53543 -1.00328,-2.80646 -1.7521,-5.04672 l -1.3615,-4.0732 0.78704,-0.67452 c 2.22062,-1.90318 10.9102,-5.18764 17.61112,-6.6566 3.30085,-0.72361 4.65489,-0.81462 12.0425,-0.80942 9.30956,0.007 11.58134,0.36814 17.19062,2.73607 7.8663,3.32073 13.77537,10.03647 16.59791,18.86374 1.91221,5.98032 1.98284,6.81495 2.3364,27.60927 0.5011,29.4714 0.63861,34.57724 1.10004,40.84476 0.23333,3.1692 0.31357,5.87284 0.17832,6.00809 -0.38412,0.38412 -4.01198,0.13319 -6.5355,-0.45206 -5.78275,-1.3411 -9.00275,-4.17723 -9.95602,-8.76911 -0.23039,-1.10979 -0.5575,-2.01781 -0.72689,-2.01781 -0.1694,0 -0.99488,0.81638 -1.83439,1.81417 -3.79631,4.51203 -11.12624,9.03858 -17.11082,10.56666 -5.22768,1.33482 -9.43571,1.64789 -14.34474,1.0672 z m 16.45256,-12.8901 c 7.56591,-2.44592 13.31894,-8.04639 15.75193,-15.33424 0.67473,-2.02111 0.73529,-3.02424 0.73529,-12.17898 l 0,-9.97646 -7.17237,0.19599 c -9.2699,0.25331 -14.02003,1.08225 -20.26403,3.53621 -9.2338,3.629 -13.73879,10.26122 -13.18116,19.40526 0.47837,7.84425 4.71154,13.08617 12.10517,14.98979 1.5181,0.39086 10.28113,-0.0737 12.02517,-0.63757 z"
     id="path3140"
     inkscape:connector-curvature="0" /><path
     style="fill:#ececec"
     d=""
     id="path3142"
     inkscape:connector-curvature="0" /><path
     style="fill:#f9f9f9"
     d="m 242.13898,270.30313 -3.5753,-0.11418 -0.23225,-5.88894 c -0.12774,-3.23892 -0.23226,-6.97919 -0.23226,-8.31171 0,-1.33253 -0.11954,-2.41958 -0.26564,-2.41568 -0.1461,0.004 -2.01889,1.37593 -4.16175,3.04896 -11.01964,8.60357 -20.8737,11.82294 -36.17296,11.81789 -7.55322,-0.002 -11.91083,-0.58758 -16.96022,-2.27721 -15.02996,-5.02934 -25.00423,-16.07624 -29.09975,-32.22916 -0.79233,-3.125 -0.92658,-4.53769 -1.08316,-11.39832 -0.10991,-4.81585 -0.0271,-8.95778 0.21502,-10.757 0.89249,-6.63167 3.98257,-14.66314 7.84234,-20.38306 2.24619,-3.32872 6.71445,-8.06318 9.89923,-10.489 3.02954,-2.30757 10.60629,-5.99798 15.06434,-7.33739 5.10678,-1.53431 8.08748,-1.92397 14.87604,-1.94471 6.10326,-0.0186 8.71616,0.29595 12.80875,1.54214 4.48044,1.3643 12.51592,5.02481 12.51592,5.70155 0,0.45503 -3.23198,9.31772 -3.50562,9.61307 -0.13409,0.14473 -1.40614,-0.29389 -2.82678,-0.97471 -7.20909,-3.45487 -13.00442,-4.51625 -20.69961,-3.79103 -5.09104,0.4798 -8.98829,1.58242 -13.1687,3.72574 -3.58353,1.83728 -9.21659,7.28371 -11.427,11.0484 -5.19294,8.84441 -6.71565,21.25198 -3.98127,32.44072 1.98807,8.13491 5.49236,13.68799 11.43791,18.12507 6.85312,5.11439 11.82252,6.6361 21.67131,6.6361 5.45992,0 9.38587,-0.67345 15.12899,-2.59522 7.87322,-2.63455 11.53395,-5.04907 17.98794,-11.86438 l 4.25161,-4.48963 0.004,-101.91854 c 0.004,-98.727681 0.024,-101.918532 0.65535,-101.918532 1.41384,0 6.10022,1.421963 7.40873,2.247992 2.92693,1.847687 4.67513,4.879467 5.79335,10.046995 0.41258,1.906589 0.86815,3.595043 1.0124,3.75212 0.2824,0.30754 1.19047,-0.377027 5.3227,-4.012621 8.99947,-7.917866 15.73633,-11.164578 24.02931,-11.580506 8.97278,-0.450023 17.37934,2.535178 23.5465,8.361451 5.78808,5.468156 10.13468,15.908808 10.70687,25.718218 0.1736,2.976131 0.8438,80.850183 0.69866,81.180043 -0.11537,0.26217 -5.61191,-0.78644 -7.16165,-1.36627 -4.38212,-1.63956 -7.87629,-6.5183 -8.60933,-12.02078 -0.1921,-1.44199 -0.51028,-16.16962 -0.70707,-32.72806 -0.19679,-16.55844 -0.52556,-31.670414 -0.73061,-33.582165 -0.51874,-4.836428 -1.47329,-8.282527 -3.22892,-11.657086 -2.6784,-5.148218 -6.60693,-8.33755 -12.13963,-9.855425 -3.9878,-1.094038 -10.51196,-0.883075 -14.30305,0.4625 -3.75164,1.331573 -6.23066,2.916111 -9.27888,5.930879 -3.02989,2.996642 -4.57586,5.429255 -6.47304,10.185443 l -1.30784,3.278714 0,75.44029 c 0,44.36259 0.13107,75.4403 0.31817,75.4403 0.66696,0 12.32148,-12.85036 44.08888,-48.61275 l 2.75297,-3.09918 3.78126,0.0451 c 2.0797,0.0248 5.52417,0.14433 7.65439,0.26565 l 3.87313,0.22058 -17.33699,19.65762 c -20.78208,23.56385 -24.23453,27.55314 -24.23453,28.00295 0,0.46229 5.36865,7.80069 24.60945,33.63865 l 16.21185,21.77044 -2.96673,0.0901 c -1.6317,0.0496 -6.06811,-0.0301 -9.8587,-0.17709 l -6.89197,-0.2672 -4.55155,-6.37544 c -18.93886,-26.52801 -26.64683,-37.01299 -27.20988,-37.01299 -0.44245,0 -2.70935,2.00171 -6.78639,5.99248 l -3.45336,3.3803 0,17.45056 0,17.45057 -3.98465,-0.0747 c -2.19156,-0.0411 -5.59354,-0.12608 -7.55996,-0.18888 z"
     id="path3144"
     inkscape:connector-curvature="0" /><path
     style="fill:#f9f9f9"
     d="m 241.96168,270.30332 -3.39841,-0.11513 -0.23087,-5.56635 c -0.12698,-3.06149 -0.2314,-6.80159 -0.23205,-8.31133 -7.1e-4,-1.50974 -0.0908,-2.74498 -0.20037,-2.74498 -0.10956,0 -1.98235,1.37205 -4.16175,3.049 -11.26742,8.6698 -20.95232,11.82998 -36.23941,11.82494 -7.55322,-0.002 -11.91083,-0.58758 -16.96022,-2.27721 -15.31556,-5.1249 -25.58203,-16.76527 -29.41546,-33.35192 -0.75554,-3.26909 -1.10224,-16.91088 -0.53762,-21.15375 0.8679,-6.52192 3.96407,-14.53648 7.82753,-20.26187 2.24619,-3.32872 6.71445,-8.06318 9.89923,-10.489 3.02954,-2.30757 10.60629,-5.99798 15.06434,-7.33739 5.10678,-1.53431 8.08748,-1.92397 14.87604,-1.94471 7.67754,-0.0234 10.81312,0.56183 17.70956,3.30562 3.50133,1.39303 7.61511,3.52767 7.61511,3.95148 0,0.46382 -3.21198,9.29294 -3.48722,9.58569 -0.12884,0.13704 -1.7798,-0.4518 -3.6688,-1.30855 -7.01036,-3.17953 -12.66092,-4.16336 -19.79766,-3.44701 -8.38407,0.84155 -13.54033,3.01772 -18.95054,7.99795 -6.83953,6.29595 -10.40342,14.72672 -10.98839,25.99424 -0.35534,6.84447 1.17992,14.96698 3.9206,20.74241 2.82305,5.949 7.8211,10.79678 14.68083,14.23944 4.01279,2.01388 7.18103,2.68509 13.72642,2.908 6.81193,0.232 10.43097,-0.28944 16.89939,-2.4349 8.13726,-2.69899 11.91481,-5.17816 18.48038,-12.12854 l 4.05061,-4.28801 0.005,-101.91854 c 0.005,-98.727109 0.0256,-101.918532 0.65693,-101.918532 1.41384,0 6.10022,1.421963 7.40873,2.247992 2.91639,1.84103 4.63122,4.805094 5.79723,10.020392 0.42954,1.92122 0.89737,3.627842 1.03964,3.792494 0.14227,0.164651 2.02801,-1.230192 4.19054,-3.099651 7.62838,-6.594552 12.9087,-9.872937 18.63839,-11.57199 3.22562,-0.956511 9.61232,-1.29464 13.0445,-0.690611 12.2163,2.149949 20.15654,8.683322 24.76337,20.375755 1.49843,3.803102 2.68201,9.170846 2.92871,13.282172 0.20138,3.355877 0.86101,81.149369 0.6901,81.386149 -0.18592,0.25759 -5.51457,-0.78841 -7.17581,-1.40859 -4.34795,-1.62321 -7.84838,-6.52375 -8.57688,-12.00747 -0.19156,-1.44199 -0.50941,-15.93054 -0.70632,-32.19677 -0.19692,-16.266235 -0.51376,-31.305048 -0.7041,-33.41958 -0.43051,-4.782669 -1.16156,-7.798372 -2.71133,-11.184686 -2.38442,-5.210036 -6.12053,-8.742644 -11.20907,-10.598516 -2.34319,-0.854602 -2.99789,-0.931183 -7.86872,-0.920427 -4.83332,0.01067 -5.54736,0.09614 -7.91083,0.946836 -3.76583,1.355459 -6.21178,2.934201 -9.2444,5.966826 -3.03016,3.030152 -4.45543,5.242559 -6.4258,9.974572 l -1.36767,3.28456 0.0244,74.734355 c 0.0134,41.1039 0.12807,75.09778 0.25476,75.54195 0.21434,0.75151 0.39231,0.64083 2.56284,-1.59386 3.37223,-3.47191 7.65753,-8.22121 27.06061,-29.99066 l 17.32935,-19.44281 7.44666,0.2507 c 4.09567,0.13789 7.50145,0.30549 7.5684,0.37245 0.067,0.0669 -7.58842,8.86278 -17.01194,19.54629 -18.75591,21.26371 -24.35958,27.72811 -24.35958,28.10127 0,0.42213 4.2025,6.17069 22.74121,31.10754 9.89493,13.3099 17.99079,24.26769 17.99079,24.35065 0,0.21627 -4.49469,0.18626 -12.56018,-0.0839 l -7.00704,-0.23467 -1.54332,-2.15612 c -21.02817,-29.37777 -29.77577,-41.29425 -30.3131,-41.29425 -0.38203,0 -2.8962,2.24672 -7.10647,6.35051 l -3.09917,3.02079 0,17.4513 0,17.45131 -4.16175,-0.0741 c -2.28896,-0.0408 -5.69103,-0.12594 -7.56016,-0.18926 z"
     id="path3146"
     inkscape:connector-curvature="0" /><path
     style="fill:#f9f9f9"
     d="m 254.46519,48.038083 c 2.22791,-2.269786 3.47955,-3.496249 4.72582,-4.630759 4.94662,-4.503025 9.77422,-7.500248 14.84706,-9.217816 0.48587,-0.164509 0.98003,-0.318823 1.58879,-0.496149 l 0.39133,-0.113989 0.45395,-0.0037 0.45394,-0.0037 -0.13305,0.03712 c -0.0732,0.02042 -0.25985,0.0703 -0.41481,0.110852 -1.08391,0.283634 -2.48418,0.754027 -3.6785,1.235711 -4.95367,1.997878 -9.95576,5.410952 -15.32448,10.456322 -0.2841,0.266995 -1.18161,1.118566 -1.99445,1.892381 -1.32286,1.259341 -1.61843,1.528134 -1.68038,1.528134 -0.008,0 0.33593,-0.35748 0.76478,-0.794399 z"
     id="path3148"
     inkscape:connector-curvature="0" /><path
     style="fill:#f9f9f9"
     d="m 247.4433,45.396607 c 0,-5.436744 0.003,-9.88499 0.008,-9.88499 0.004,0 0.0834,0.06098 0.17609,0.135501 0.5718,0.459633 1.22595,1.122728 1.75419,1.778176 1.20521,1.495441 2.02796,3.21027 2.61538,5.451149 0.18069,0.689271 0.32007,1.35006 0.51837,2.457551 0.28012,1.564344 0.5178,2.672447 0.70677,3.294997 0.0622,0.205008 0.12712,0.360114 0.15057,0.359936 0.0888,-6.77e-4 0.30932,-0.111611 0.60427,-0.304036 0.75218,-0.490715 1.4751,-1.101475 3.2309,-2.7296 1.75371,-1.626191 3.1177,-2.81195 4.60555,-4.00377 1.92743,-1.54393 3.92826,-2.950423 5.79951,-4.076804 3.43911,-2.070131 6.83582,-3.472613 10.2332,-4.225223 l 0.35604,-0.07887 3.42812,0 3.42812,0 0,6.967344 c 0,5.567408 -0.004,6.965849 -0.0196,6.959904 -0.0403,-0.01533 -0.46762,-0.121736 -0.73179,-0.182229 -0.57477,-0.131616 -1.43096,-0.288313 -1.92916,-0.353066 -0.33099,-0.04302 -1.63614,-0.05951 -4.0034,-0.05059 -2.88225,0.01086 -3.12828,0.01928 -3.7959,0.12983 -3.28429,0.54386 -6.3375,1.732978 -9.0806,3.536576 -1.25428,0.8247 -2.34005,1.700223 -3.6611,2.95219 -0.56899,0.53924 -1.41069,1.398198 -1.64298,1.676675 l -0.062,0.07434 -6.34405,0 -6.34405,0 0,-9.884989 z"
     id="path3150"
     inkscape:connector-curvature="0" /><path
     style="fill:#f9f9f9"
     d="m 254.02624,48.615627 c 0.008,-0.0074 0.67702,-0.643066 1.48632,-1.412701 1.79927,-1.711103 2.31098,-2.191658 2.96623,-2.785671 4.62529,-4.192978 8.97097,-7.15205 13.29855,-9.05526 1.60263,-0.704818 3.40154,-1.32804 4.965,-1.720101 l 0.28586,-0.07168 0.5354,0.0041 0.53541,0.0041 -0.20296,0.04396 c -0.11163,0.02418 -0.37906,0.08641 -0.59429,0.138294 -4.63093,1.116296 -9.22107,3.420795 -14.05657,7.057168 -1.10023,0.827392 -2.22638,1.737408 -3.42035,2.76392 -0.81692,0.702337 -1.52254,1.335972 -2.62961,2.361349 -1.6492,1.527501 -2.41292,2.180788 -3.06325,2.620309 -0.0869,0.05875 -0.14486,0.08734 -0.10574,0.05218 z"
     id="path3152"
     inkscape:connector-curvature="0" /><path
     style="fill:#f9f9f9"
     d="m 254.12756,48.529302 c 0.11779,-0.112623 1.7725,-1.681655 2.50454,-2.374857 2.01766,-1.910627 3.3159,-3.061793 4.89907,-4.344063 5.14235,-4.165005 10.12504,-6.848391 15.08967,-8.126425 l 0.41481,-0.106783 0.47532,0.0085 0.47533,0.0085 -0.29531,0.06776 c -4.93117,1.131437 -9.72699,3.538787 -14.84496,7.451706 -1.50451,1.150265 -3.19007,2.565468 -4.67247,3.923019 -2.81634,2.57914 -3.20212,2.917278 -3.88463,3.404895 -0.1753,0.125242 -0.23381,0.157087 -0.16137,0.08782 z"
     id="path3154"
     inkscape:connector-curvature="0" /><path
     style="fill:#f9f9f9"
     d="m 254.14312,48.513613 c 0.03,-0.02902 0.41395,-0.393544 0.85325,-0.810052 2.57961,-2.445777 3.16281,-2.990892 3.96767,-3.708583 5.47313,-4.880354 10.59472,-8.050812 15.74711,-9.748054 0.71996,-0.237161 1.21446,-0.383234 1.87839,-0.554866 l 0.44611,-0.115327 0.47676,0.0087 0.47676,0.0087 -0.32805,0.0759 c -4.80437,1.111598 -9.43812,3.405896 -14.40028,7.12998 -1.34956,1.012843 -2.90401,2.28796 -4.30462,3.531093 -0.31498,0.279563 -0.37408,0.333323 -1.79229,1.630301 -1.74661,1.597299 -2.33893,2.107292 -2.92171,2.515595 -0.14451,0.101249 -0.17906,0.114025 -0.0991,0.03664 l 0,0 z"
     id="path3156"
     inkscape:connector-curvature="0" /></svg>